<svg width="531" height="361" viewBox="0 0 531 361" fill="none" xmlns="http://www.w3.org/2000/svg">
<path d="M469.937 169.53H68.6495V359.859H469.937V169.53Z" fill="#E6E6E6"/>
<path d="M458.463 185.851H80.1245V344.649H458.463V185.851Z" fill="white"/>
<path d="M395.192 215.409H385.395V225.201H395.192V215.409Z" fill="#E6E6E6"/>
<path d="M133.874 215.409H124.077V225.201H133.874V215.409Z" fill="#D9984A"/>
<path d="M156.451 243.458H123.793V276.1H156.451V243.458Z" fill="#E6E6E6"/>
<path d="M469.766 158.534H68.4785V175.574H469.766V158.534Z" fill="#D9984A"/>
<path d="M81.1472 173.992C82.8923 173.992 84.307 172.578 84.307 170.834C84.307 169.09 82.8923 167.676 81.1472 167.676C79.4021 167.676 77.9874 169.09 77.9874 170.834C77.9874 172.578 79.4021 173.992 81.1472 173.992Z" fill="white"/>
<path d="M93.1406 173.992C94.8857 173.992 96.3004 172.578 96.3004 170.834C96.3004 169.09 94.8857 167.676 93.1406 167.676C91.3955 167.676 89.9808 169.09 89.9808 170.834C89.9808 172.578 91.3955 173.992 93.1406 173.992Z" fill="white"/>
<path d="M105.135 173.992C106.88 173.992 108.294 172.578 108.294 170.834C108.294 169.09 106.88 167.676 105.135 167.676C103.389 167.676 101.975 169.09 101.975 170.834C101.975 172.578 103.389 173.992 105.135 173.992Z" fill="white"/>
<path d="M531 359.86H0V361H531V359.86Z" fill="#E6E6E6"/>
<path d="M270.33 246.723H190.32V251.314H270.33V246.723Z" fill="#E6E6E6"/>
<path d="M313.873 263.469H190.32V268.06H313.873V263.469Z" fill="#D9984A"/>
<path d="M291.013 279.245H190.32V283.836H291.013V279.245Z" fill="#E6E6E6"/>
<path d="M249.103 294.963H190.32V299.554H249.103V294.963Z" fill="#E6E6E6"/>
<path d="M279.039 310.679H190.32V315.27H279.039V310.679Z" fill="#E6E6E6"/>
<path d="M412.066 215.409H402.269V225.201H412.066V215.409Z" fill="#E6E6E6"/>
<path d="M428.939 215.409H419.142V225.201H428.939V215.409Z" fill="#E6E6E6"/>
<path opacity="0.997" d="M409.042 299.553C420.03 299.553 428.938 290.649 428.938 279.666C428.938 268.683 420.03 259.779 409.042 259.779C398.053 259.779 389.145 268.683 389.145 279.666C389.145 290.649 398.053 299.553 409.042 299.553Z" fill="#D9984A"/>
<path d="M107.506 53.8489C119.876 53.8489 129.905 43.8249 129.905 31.4598C129.905 19.0946 119.876 9.07068 107.506 9.07068C95.1346 9.07068 85.106 19.0946 85.106 31.4598C85.106 43.8249 95.1346 53.8489 107.506 53.8489Z" fill="#171926"/>
<path d="M51.7614 223.024H41.9513L37.2852 185.212H51.7603L51.7614 223.024Z" fill="#FEB8B8"/>
<path d="M34.9484 220.222H53.8631V232.126H23.0389C23.0389 228.969 24.2936 225.941 26.5271 223.709C28.7606 221.476 31.7898 220.222 34.9484 220.222Z" fill="#171926"/>
<path d="M36.4514 217.553L27.0941 214.617L33.968 177.142L47.7786 181.475L36.4514 217.553Z" fill="#FEB8B8"/>
<path d="M21.2434 209.85L39.2908 215.511L35.7248 226.868L6.31482 217.643C6.78311 216.152 7.54074 214.767 8.54444 213.568C9.54814 212.369 10.7783 211.38 12.1646 210.656C13.5509 209.932 15.0662 209.489 16.6241 209.35C18.1819 209.212 19.7518 209.382 21.244 209.85L21.2434 209.85Z" fill="#171926"/>
<path d="M39.6425 202.464C39.2139 202.464 38.7888 202.387 38.3877 202.236L31.1698 199.532C30.3598 199.226 29.6869 198.639 29.2736 197.878C28.8604 197.117 28.7344 196.233 28.9187 195.387C30.7352 187.223 36.9264 159.428 40.3166 144.519C44.337 126.836 102.99 123.55 105.485 123.419L105.69 123.408L112.288 131.692C114.672 139.351 113.916 145.326 110.042 149.45C98.7358 161.482 64.9805 154.016 60.9555 153.071L43.015 200.147C42.7535 200.829 42.2914 201.415 41.6896 201.829C41.0877 202.243 40.3746 202.464 39.6442 202.464H39.6425Z" fill="#171926"/>
<path d="M50.0423 208.062C49.6137 208.062 49.1887 207.984 48.7875 207.834L41.572 205.129C40.7619 204.823 40.0888 204.236 39.6756 203.475C39.2624 202.714 39.1365 201.83 39.3208 200.984C41.1374 192.82 47.3286 165.025 50.7188 150.116C54.7392 132.433 113.392 129.147 115.887 129.016L116.092 129.005L122.688 137.291C125.072 144.951 124.316 150.925 120.442 155.049C109.136 167.078 75.3803 159.615 71.3553 158.67L53.4125 205.744C53.1511 206.426 52.6889 207.012 52.0871 207.426C51.4853 207.84 50.7721 208.061 50.0417 208.061L50.0423 208.062Z" fill="#171926"/>
<path d="M29.1668 92.8988C29.4318 93.2533 29.6684 93.628 29.8746 94.0196L69.3306 98.1744L75.0113 90.3904L87.8837 97.4224L76.7281 116.311L28.3387 103.978C27.1178 105.168 25.5635 105.958 23.8825 106.243C22.2014 106.529 20.4734 106.296 18.9281 105.575C17.3828 104.855 16.0935 103.682 15.2317 102.211C14.3699 100.74 13.9765 99.0424 14.1037 97.3429C14.2309 95.6434 14.8727 94.0228 15.9438 92.6968C17.0149 91.3707 18.4645 90.402 20.0998 89.9195C21.7351 89.437 23.4787 89.4636 25.0985 89.9957C26.7184 90.5278 28.1378 91.5402 29.1679 92.8982L29.1668 92.8988Z" fill="#FEB8B8"/>
<path d="M120.856 140.463C120.286 140.462 119.724 140.325 119.217 140.064C111.327 136.054 95.9639 129.11 81.7175 127.657C81.23 127.609 80.7578 127.46 80.3313 127.219C79.9049 126.978 79.5335 126.65 79.2411 126.258C78.943 125.861 78.7299 125.406 78.6152 124.923C78.5005 124.44 78.4866 123.939 78.5743 123.45C79.8599 116.337 82.8086 98.2246 82.4288 83.7084C82.3169 79.245 83.7278 74.8765 86.4293 71.3208C89.1308 67.7651 92.9623 65.234 97.2939 64.1436C99.9009 63.456 102.549 62.9341 105.222 62.5809C108.295 62.1919 111.417 62.5277 114.337 63.5614C117.256 64.5951 119.894 66.298 122.037 68.5336C124.18 70.7692 125.769 73.4754 126.678 76.4355C127.587 79.3955 127.789 82.5272 127.269 85.5795C124.729 100.623 122.167 121.634 124.393 136.301C124.495 136.959 124.414 137.632 124.157 138.245C123.9 138.859 123.478 139.39 122.938 139.779C122.334 140.221 121.605 140.461 120.856 140.463Z" fill="#CCCCCC"/>
<path d="M83.1594 102.2C82.6676 102.199 82.1812 102.098 81.7301 101.902L71.4518 97.4549C70.5763 97.0749 69.8873 96.3634 69.5361 95.4763C69.1848 94.5892 69.1999 93.5991 69.5781 92.7232L77.5232 74.3783C77.9951 73.2667 78.6815 72.2588 79.5431 71.4124C80.4047 70.5659 81.4247 69.8973 82.5448 69.4448C83.665 68.9924 84.8633 68.7648 86.0714 68.7752C87.2795 68.7857 88.4737 69.0338 89.5858 69.5055C90.698 69.9773 91.7063 70.6633 92.5531 71.5245C93.4 72.3858 94.0689 73.4053 94.5216 74.5249C94.9743 75.6445 95.2019 76.8422 95.1915 78.0497C95.1811 79.2573 94.9328 80.4509 94.4609 81.5626C94.4437 81.603 94.4262 81.6432 94.4085 81.6834L86.4635 100.029C86.1838 100.673 85.7222 101.221 85.1353 101.607C84.5484 101.992 83.8617 102.198 83.1594 102.2Z" fill="#CCCCCC"/>
<path d="M106.687 56.3401C117.539 56.3401 126.336 47.5472 126.336 36.7006C126.336 25.854 117.539 17.061 106.687 17.061C95.8354 17.061 87.0384 25.854 87.0384 36.7006C87.0384 47.5472 95.8354 56.3401 106.687 56.3401Z" fill="#FEB8B8"/>
<path d="M86.6848 27.0496C95.9916 32.7284 106.484 36.184 117.345 37.1476L114.113 33.2773C116.466 34.1469 118.942 34.6383 121.45 34.7333C122.705 34.7697 123.951 34.5114 125.089 33.9793C126.226 33.4471 127.223 32.6559 127.999 31.6691C128.633 30.6448 129.009 29.4825 129.096 28.2814C129.183 27.0802 128.978 25.8759 128.499 24.771C127.514 22.5663 125.981 20.6503 124.046 19.2052C120.616 16.4931 116.568 14.6713 112.263 13.9022C107.958 13.1331 103.529 13.4406 99.3711 14.7973C96.5191 15.6492 93.9648 17.2869 92.001 19.5227C90.1382 21.8196 86.5524 23.8662 87.5061 26.6648L86.6848 27.0496Z" fill="#171926"/>
<path d="M108.444 10.5051C112.36 6.53435 117.1 3.47003 122.329 1.52786C125.648 0.132255 129.288 -0.319347 132.848 0.222929C136.358 0.928699 139.676 3.355 140.655 6.79662C141.454 9.61058 140.629 12.6406 139.387 15.2909C138.144 17.9413 136.486 20.3967 135.481 23.1445C134.456 25.9483 134.147 28.9637 134.584 31.9168C135.02 34.87 136.188 37.6675 137.98 40.0552C139.773 42.443 142.134 44.3454 144.848 45.5898C147.563 46.8342 150.546 47.3812 153.526 47.1811C150.078 47.6435 146.9 49.2631 143.53 50.1245C140.159 50.9859 136.182 50.9283 133.677 48.5146C131.028 45.9611 130.975 41.8097 131.103 38.1333L131.673 21.7364C131.77 18.9492 131.853 16.0725 130.847 13.4701C129.841 10.8676 127.451 8.59012 124.661 8.61407C122.546 8.63174 120.675 9.91273 118.979 11.1755C117.283 12.4382 115.488 13.7853 113.381 13.9735C111.275 14.1616 108.87 12.6053 109.027 10.4959" fill="#171926"/>
<path d="M73.6527 135.418C72.3509 135.416 71.0655 135.126 69.8894 134.568C68.7132 134.01 67.6755 133.198 66.8509 132.191C66.0264 131.184 65.4355 130.007 65.121 128.744C64.8064 127.482 64.776 126.165 65.0319 124.889C65.2877 123.613 65.8235 122.41 66.6006 121.366C67.3778 120.322 68.3769 119.463 69.526 118.852C70.6751 118.24 71.9457 117.891 73.2461 117.829C74.5465 117.767 75.8444 117.995 77.0463 118.495C77.4079 118.647 77.7584 118.825 78.0952 119.026L113.888 102.966L114.893 93.2631L130.322 92.8503L130.22 109.004C130.201 110.875 129.579 112.691 128.446 114.181C127.313 115.671 125.73 116.756 123.931 117.275L82.0752 129.182C81.9944 129.458 81.8992 129.73 81.79 129.996C81.1184 131.599 79.9885 132.969 78.5417 133.933C77.0949 134.898 75.3957 135.414 73.6567 135.417L73.6527 135.418Z" fill="#FEB8B8"/>
<path d="M129.015 100.765C128.576 100.987 128.097 101.117 127.606 101.146L116.427 101.833C115.474 101.891 114.538 101.568 113.823 100.936C113.108 100.304 112.673 99.4148 112.613 98.4628L111.386 78.5097C111.239 76.077 112.064 73.6856 113.68 71.8606C115.296 70.0357 117.571 68.9265 120.005 68.7769C122.438 68.6272 124.832 69.4493 126.659 71.0625C128.487 72.6757 129.599 74.948 129.752 77.3804L130.979 97.3334C131.022 98.0344 130.859 98.7324 130.51 99.3421C130.161 99.9517 129.642 100.446 129.016 100.765H129.015Z" fill="#CCCCCC"/>
<path d="M106.505 131.838H39.7343C39.1742 131.838 38.7202 132.291 38.7202 132.851V136.421C38.7202 136.981 39.1742 137.435 39.7343 137.435H106.505C107.065 137.435 107.519 136.981 107.519 136.421V132.851C107.519 132.291 107.065 131.838 106.505 131.838Z" fill="#2C3046"/>
<path d="M13.064 132.238V93.0561C13.0656 91.6782 13.614 90.3571 14.5888 89.3828C15.5636 88.4084 16.8853 87.8603 18.2639 87.8586H89.463C90.8416 87.8602 92.1633 88.4082 93.1382 89.3826C94.113 90.357 94.6613 91.6781 94.6629 93.0561V132.238C94.6613 133.616 94.113 134.937 93.1382 135.911C92.1633 136.886 90.8416 137.434 89.463 137.435H18.2639C16.8853 137.434 15.5636 136.885 14.5888 135.911C13.614 134.937 13.0656 133.616 13.064 132.238Z" fill="#2C3046"/>
<path d="M54.7198 117.447C57.3709 117.447 59.5199 115.299 59.5199 112.649C59.5199 109.999 57.3709 107.851 54.7198 107.851C52.0688 107.851 49.9197 109.999 49.9197 112.649C49.9197 115.299 52.0688 117.447 54.7198 117.447Z" fill="white"/>
</svg>
